<svg width="18" height="24" fill="none" xmlns="http://www.w3.org/2000/svg"><g filter="url(#a)"><mask id="b" fill="#fff"><path d="M12.5 0h-7C4.673 0 4 .673 4 1.5v13c0 .827.673 1.5 1.5 1.5h7c.827 0 1.5-.673 1.5-1.5v-13c0-.827-.673-1.5-1.5-1.5Zm-7 1h7a.5.5 0 0 1 .5.5V12H5V1.5a.5.5 0 0 1 .5-.5Zm7 14h-7a.5.5 0 0 1-.5-.5V13h8v1.5a.5.5 0 0 1-.5.5Z"/></mask><path d="M12.5 0h-7C4.673 0 4 .673 4 1.5v13c0 .827.673 1.5 1.5 1.5h7c.827 0 1.5-.673 1.5-1.5v-13c0-.827-.673-1.5-1.5-1.5Zm-7 1h7a.5.5 0 0 1 .5.5V12H5V1.5a.5.5 0 0 1 .5-.5Zm7 14h-7a.5.5 0 0 1-.5-.5V13h8v1.5a.5.5 0 0 1-.5.5Z" fill="#757575"/><path d="M13 12v1h1v-1h-1Zm-8 0H4v1h1v-1Zm0 1v-1H4v1h1Zm8 0h1v-1h-1v1Zm-.5-14h-7v2h7v-2Zm-7 0C4.12-1 3 .12 3 1.5h2c0-.275.225-.5.5-.5v-2ZM3 1.5v13h2v-13H3Zm0 13C3 15.88 4.12 17 5.5 17v-2a.502.502 0 0 1-.5-.5H3ZM5.5 17h7v-2h-7v2Zm7 0c1.38 0 2.5-1.12 2.5-2.5h-2c0 .275-.225.5-.5.5v2Zm2.5-2.5v-13h-2v13h2Zm0-13C15 .12 13.88-1 12.5-1v2c.275 0 .5.225.5.5h2ZM5.5 2h7V0h-7v2Zm7 0a.5.5 0 0 1-.5-.5h2A1.5 1.5 0 0 0 12.5 0v2Zm-.5-.5V12h2V1.5h-2Zm1 9.5H5v2h8v-2Zm-7 1V1.5H4V12h2ZM6 1.5a.5.5 0 0 1-.5.5V0A1.5 1.5 0 0 0 4 1.5h2ZM12.5 14h-7v2h7v-2Zm-7 0a.5.5 0 0 1 .5.5H4A1.5 1.5 0 0 0 5.5 16v-2Zm.5.5V13H4v1.5h2ZM5 14h8v-2H5v2Zm7-1v1.5h2V13h-2Zm0 1.5a.5.5 0 0 1 .5-.5v2a1.5 1.5 0 0 0 1.5-1.5h-2Z" fill="#000" mask="url(#b)"/></g><path d="M6.354 13.739a.445.445 0 0 1 0 .66.525.525 0 0 1-.708 0 .445.445 0 0 1 0-.66.525.525 0 0 1 .708 0Z" fill="#757575"/><defs><filter id="a" x="0" y="0" width="18" height="24" filterUnits="userSpaceOnUse" color-interpolation-filters="sRGB"><feFlood flood-opacity="0" result="BackgroundImageFix"/><feColorMatrix in="SourceAlpha" values="0 0 0 0 0 0 0 0 0 0 0 0 0 0 0 0 0 0 127 0" result="hardAlpha"/><feOffset dy="4"/><feGaussianBlur stdDeviation="2"/><feComposite in2="hardAlpha" operator="out"/><feColorMatrix values="0 0 0 0 0 0 0 0 0 0 0 0 0 0 0 0 0 0 0.25 0"/><feBlend in2="BackgroundImageFix" result="effect1_dropShadow_1_513"/><feBlend in="SourceGraphic" in2="effect1_dropShadow_1_513" result="shape"/></filter></defs></svg>